<?xml version="1.0" encoding="UTF-8"?>
<svg width="24px" height="24px" viewBox="0 0 24 24" version="1.1" xmlns="http://www.w3.org/2000/svg" xmlns:xlink="http://www.w3.org/1999/xlink">
    <title>Combined Shape</title>
    <g id="Android" stroke="none" stroke-width="1" fill="none" fill-rule="evenodd">
        <g id="1.0.1--Photos--Details" transform="translate(-199.000000, -588.000000)" fill="#7A0022" fill-rule="nonzero">
            <g id="zoom-in-copy" transform="translate(199.000000, 588.000000)">
                <path d="M2.75395385,2.75395385 C6.42590769,-0.918 12.4005692,-0.918 16.0725231,2.75395385 C19.5242308,6.20561538 19.7309077,11.6918769 16.6933385,15.3876462 L16.6933385,15.3876462 L23.3603538,22.0546615 C23.7209077,22.4152154 23.7209077,22.9997538 23.3603077,23.3603538 C22.9997538,23.7209077 22.4152154,23.7209077 22.0546615,23.3603538 L22.0546615,23.3603538 L15.3876462,16.6933385 C11.6902615,19.7322 6.20469231,19.5232615 2.75395385,16.0725231 C-0.918,12.4005692 -0.918,6.42590769 2.75395385,2.75395385 Z M14.7668769,4.0596 C11.8147846,1.10750769 7.01155385,1.10773846 4.05964615,4.0596 C1.10764615,7.0116 1.10764615,11.8148308 4.05964615,14.7668308 C7.01164615,17.7187846 11.8148769,17.7188308 14.7668769,14.7668308 C17.7188769,11.8148308 17.7188769,7.0116 14.7668769,4.0596 Z M13.9337077,8.48995385 C14.4436154,8.48995385 14.8569692,8.90330769 14.8569692,9.41321538 C14.8569692,9.92312308 14.4436154,10.3364769 13.9337077,10.3364769 L13.9337077,10.3364769 L4.89272308,10.3364769 C4.38281538,10.3364769 3.96946154,9.92312308 3.96946154,9.41321538 C3.96946154,8.90330769 4.38281538,8.48995385 4.89272308,8.48995385 L4.89272308,8.48995385 Z" id="Combined-Shape"></path>
            </g>
        </g>
    </g>
</svg>