<?xml version="1.0" encoding="UTF-8"?>
<svg width="31px" height="30px" viewBox="0 0 31 30" version="1.1" xmlns="http://www.w3.org/2000/svg" xmlns:xlink="http://www.w3.org/1999/xlink">
    <title>Details-Favorite-deslect</title>
    <g id="Android" stroke="none" stroke-width="1" fill="none" fill-rule="evenodd" fill-opacity="0.15073208">
        <g id="1.0.1--Photos--Details" transform="translate(-310.000000, -101.000000)" fill="#FFDCDC" fill-rule="nonzero" stroke="#FFDCDC" stroke-width="2">
            <path d="M331.545812,102 C330.193635,102 328.901311,102.318171 327.704777,102.945737 C326.890266,103.37285 326.142066,103.940329 325.5,104.61362 C324.857934,103.940329 324.109734,103.37285 323.295223,102.945737 C322.098629,102.318171 320.806305,102 319.454128,102 C314.792542,102 311,105.892872 311,110.677839 C311,114.06694 312.743767,117.666437 316.182808,121.376471 C319.054227,124.474161 322.569744,127.056356 325.013219,128.677103 L325.5,129 L325.986781,128.677103 C328.430256,127.056418 331.945773,124.474161 334.817192,121.376471 C338.256233,117.666437 340,114.06694 340,110.677839 C340,105.892872 336.207458,102 331.545812,102 Z" id="Details-Favorite-deslect"></path>
        </g>
    </g>
</svg>