<?xml version="1.0" encoding="UTF-8"?>
<svg width="28px" height="28px" viewBox="0 0 28 28" version="1.1" xmlns="http://www.w3.org/2000/svg" xmlns:xlink="http://www.w3.org/1999/xlink">
    <title>Fullscreen</title>
    <g id="Android" stroke="none" stroke-width="1" fill="none" fill-rule="evenodd">
        <g id="1.1.1--Video-Details---Play" transform="translate(-318.000000, -598.000000)" fill="#FFFFFF">
            <path d="M344.602686,615.322669 C344.944654,615.322669 345.221314,615.599387 345.221314,615.941297 L345.221314,615.941297 L345.221314,624.602669 C345.221314,624.944637 344.944654,625.221355 344.602628,625.221355 L344.602628,625.221355 L335.941314,625.221355 C335.599346,625.221355 335.322628,624.944637 335.322628,624.602669 L335.322628,624.602669 L335.322628,623.365355 C335.322628,623.023387 335.599346,622.746669 335.941314,622.746669 L335.941314,622.746669 L342.746686,622.746669 L342.746686,615.941355 C342.746686,615.599387 343.023404,615.322669 343.365372,615.322669 L343.365372,615.322669 Z M319.856,615.322611 C320.197968,615.322611 320.474686,615.599387 320.474686,615.941297 L320.474686,615.941297 L320.474686,622.746669 L327.28,622.746669 C327.621968,622.746669 327.898686,623.023387 327.898686,623.365297 L327.898686,623.365297 L327.898686,624.602611 C327.898686,624.944637 327.621968,625.221297 327.28,625.221297 L327.28,625.221297 L318.618686,625.221297 C318.276718,625.221297 318,624.944637 318,624.602611 L318,624.602611 L318,615.941297 C318,615.599387 318.276718,615.322611 318.618686,615.322611 L318.618686,615.322611 Z M327.28,598.000012 C327.621968,598.000012 327.898686,598.27673 327.898686,598.618698 L327.898686,598.618698 L327.898686,599.856012 C327.898686,600.19798 327.621968,600.474698 327.28,600.474698 L327.28,600.474698 L320.474686,600.474698 L320.474686,607.280012 C320.474686,607.62198 320.197968,607.898698 319.856,607.898698 L319.856,607.898698 L318.618686,607.898698 C318.276718,607.898698 318,607.62198 318,607.280012 L318,607.280012 L318,598.618698 C318,598.27673 318.276718,598.000012 318.618686,598.000012 L318.618686,598.000012 Z M344.602686,598.000012 C344.944654,598.000012 345.221314,598.27673 345.221314,598.618698 L345.221314,598.618698 L345.221314,607.280012 C345.221314,607.62198 344.944654,607.898698 344.602628,607.898698 L344.602628,607.898698 L343.365314,607.898698 C343.023404,607.898698 342.746628,607.62198 342.746628,607.280012 L342.746628,607.280012 L342.746628,600.474698 L335.941314,600.474698 C335.599346,600.474698 335.322628,600.19798 335.322628,599.856012 L335.322628,599.856012 L335.322628,598.618698 C335.322628,598.27673 335.599346,598.000012 335.941314,598.000012 L335.941314,598.000012 Z" id="Fullscreen"></path>
        </g>
    </g>
</svg>