<?xml version="1.0" encoding="UTF-8"?>
<svg width="21px" height="22px" viewBox="0 0 21 22" version="1.1" xmlns="http://www.w3.org/2000/svg" xmlns:xlink="http://www.w3.org/1999/xlink">
    <title>Pause</title>
    <g id="Android" stroke="none" stroke-width="1" fill="none" fill-rule="evenodd">
        <g id="1.1.2--Video-Details---Pause" transform="translate(-20.000000, -598.000000)" fill="#FFFFFF">
            <path d="M23.3674957,598 C23.4702546,598 23.5719431,598.006307 23.6725613,598.015068 L23.6725613,598.015068 L23.7549825,598.023828 C23.8395445,598.033289 23.9230361,598.045903 24.0054574,598.061321 C24.0222271,598.064825 24.0397103,598.066928 24.0568368,598.070432 C24.1538869,598.090405 24.249153,598.114583 24.3429919,598.142616 C24.3658272,598.149274 24.3883057,598.157333 24.4107843,598.164692 C24.4846422,598.188169 24.5574298,598.21445 24.629147,598.242833 C24.6534095,598.252644 24.677672,598.261755 24.7015777,598.271916 C24.7868534,598.308359 24.8707018,598.347604 24.9524094,598.390705 C24.9791696,598.404721 25.0045025,598.420489 25.0309058,598.435206 C25.0676564,598.45588 25.1047638,598.475503 25.140444,598.497579 L25.140444,598.497579 L25.1286695,598.493725 C26.0891801,599.075752 26.7314234,600.115762 26.7314234,601.305396 L26.7314234,601.305396 L26.7314234,616.694253 C26.7314234,618.519878 25.2246492,620 23.3660685,620 C22.9279158,620 22.5111713,619.915201 22.1276093,619.765928 C22.1304637,619.76768 22.1333182,619.769782 22.1361726,619.771534 C22.1236845,619.766628 22.1115532,619.760672 22.0990652,619.755766 C22.0619578,619.740698 22.0259208,619.72458 21.9891702,619.708811 C21.9338659,619.684283 21.8789184,619.658352 21.8246846,619.63067 C21.7911452,619.613851 21.757249,619.596681 21.7240665,619.578459 C21.6587717,619.542718 21.5956178,619.504523 21.5331775,619.464577 C21.514267,619.452663 21.4942861,619.4418 21.4757324,619.429186 C21.3986632,619.377676 21.3240916,619.322311 21.2516608,619.264845 C21.2241871,619.242769 21.1977838,619.219992 21.1713804,619.197216 C21.123569,619.156919 21.0771847,619.115571 21.0322277,619.072821 C21.0043972,619.046891 20.977637,619.020961 20.9512337,618.99433 C20.9055631,618.948076 20.8620332,618.90007 20.8188602,618.851363 C20.7981657,618.827536 20.7764008,618.804759 20.7560631,618.780581 C20.6979044,618.710499 20.6433137,618.637965 20.5908638,618.563679 C20.5705261,618.534595 20.5519724,618.504109 20.5323483,618.473974 C20.4995226,618.423866 20.4677672,618.372706 20.4377958,618.320496 C20.4171013,618.285104 20.3974772,618.249363 20.3782099,618.21292 C20.351093,618.161761 20.3261169,618.10955 20.3018544,618.056989 C20.2854415,618.021247 20.2679582,617.985856 20.2529725,617.949764 C20.2180059,617.866367 20.1858938,617.781919 20.1580632,617.695719 C20.1473592,617.66208 20.1391527,617.627389 20.1291623,617.593049 C20.1120358,617.53383 20.0959797,617.473911 20.0820644,617.41294 C20.0727876,617.370891 20.0645811,617.328491 20.0567315,617.285742 C20.0463842,617.229326 20.0374642,617.17256 20.0303282,617.115443 C20.0246193,617.072694 20.0189105,617.030294 20.0149857,616.987194 C20.0082064,616.913959 20.005352,616.839673 20.003568,616.765036 C20.0032112,616.741208 20,616.718081 20,616.694253 L20,616.694253 L20,601.305396 C20,600.179186 20.5744509,599.18578 21.4507562,598.589035 C21.4621739,598.581326 21.4725212,598.572216 21.4839388,598.564507 C21.4942861,598.557499 21.5057037,598.552243 21.5164078,598.545234 C22.0469721,598.201484 22.6817226,598 23.3653549,598 L23.3653549,598 Z M37.6350019,598.000105 C37.7388313,598.000105 37.8412334,598.006412 37.9422083,598.015173 C37.9693252,598.017626 37.9964422,598.020779 38.0232023,598.023933 C38.1070507,598.033394 38.1898288,598.045658 38.2715364,598.061076 C38.2900901,598.06458 38.308287,598.067033 38.3268407,598.070887 C38.4228204,598.09051 38.517016,598.114688 38.6097845,598.14202 C38.6347607,598.149729 38.65938,598.158139 38.6843561,598.166198 C38.7550029,598.189325 38.824936,598.214204 38.893442,598.241536 C38.9198453,598.252048 38.9462487,598.26186 38.972652,598.273073 C39.0579276,598.309866 39.1417761,598.348761 39.2234837,598.391861 C39.2438214,598.402724 39.2638023,598.414988 39.28414,598.426201 C39.3265994,598.449678 39.3690588,598.472455 39.4104478,598.497684 C39.4054526,598.495582 39.4004574,598.49453 39.3954622,598.492428 C40.3570431,599.074455 41,600.114816 41,601.305501 L41,601.305501 L41,616.694358 C41,618.519983 39.4932259,619.999755 37.6342883,619.999755 C37.1975629,619.999755 36.7818887,619.915657 36.3990404,619.767084 L36.3990404,619.767084 C36.3958292,619.767785 36.3861955,619.762879 36.3754915,619.758674 C36.3319616,619.741504 36.2895022,619.722582 36.2470428,619.70366 C36.1985177,619.682285 36.1507063,619.659509 36.1036085,619.635681 C36.0647171,619.616058 36.0258257,619.596786 35.9872911,619.575411 C35.9294892,619.543874 35.8731145,619.509534 35.8174534,619.474143 C35.787482,619.455221 35.7571539,619.437 35.7278961,619.417027 C35.6568926,619.369371 35.5880298,619.318562 35.5213079,619.26565 C35.4931205,619.243224 35.4660036,619.219747 35.4388866,619.19662 C35.391432,619.156323 35.344691,619.114975 35.2993771,619.071875 C35.272617,619.046996 35.2465705,619.021767 35.2212375,618.996187 C35.1723557,618.946779 35.1256146,618.89597 35.0803008,618.84376 L35.0803008,618.84376 L35.0264237,618.783139 C34.966481,618.710955 34.9097495,618.636318 34.8562293,618.559579 C34.8401732,618.536452 34.8255443,618.512274 34.8102018,618.488797 C34.7716672,618.430979 34.7352734,618.372461 34.7010205,618.312191 C34.683894,618.282757 34.6674811,618.252972 34.651425,618.222837 C34.6193128,618.162216 34.5893415,618.100545 34.5607973,618.038172 C34.5486661,618.011541 34.5358212,617.98491 34.5244035,617.957578 C34.4869394,617.869276 34.4534,617.779571 34.4237854,617.688115 L34.4237854,617.688115 L34.4070157,617.628195 C34.3845372,617.553558 34.3649131,617.478221 34.3477866,617.401832 C34.3402938,617.368893 34.3342282,617.335254 34.3278057,617.301965 C34.3149609,617.233986 34.3042568,617.164956 34.2956936,617.095575 C34.2914119,617.063338 34.2871303,617.03075 34.2839191,616.998162 C34.2753559,616.901099 34.2692902,616.803335 34.2689334,616.70417 L34.2689334,616.70417 L34.2685766,601.305501 C34.2685766,599.479877 35.7753508,598.000105 37.6342883,598.000105 L37.6342883,598.000105 Z" id="Pause"></path>
        </g>
    </g>
</svg>