<?xml version="1.0" encoding="UTF-8"?>
<svg width="21px" height="22px" viewBox="0 0 21 22" version="1.1" xmlns="http://www.w3.org/2000/svg" xmlns:xlink="http://www.w3.org/1999/xlink">
    <title>Play</title>
    <g id="Android" stroke="none" stroke-width="1" fill="none" fill-rule="evenodd">
        <g id="1.1.1--Video-Details---Play" transform="translate(-20.000000, -598.000000)" fill="#FFFFFF">
            <path d="M20.0335984,618.990339 C20.0491683,619.058768 20.0692454,619.125263 20.0954685,619.188666 C20.0975172,619.192919 20.0987464,619.197558 20.1007951,619.201811 C20.1311156,619.272946 20.1684015,619.339829 20.2114238,619.402845 C20.214292,619.407871 20.2183893,619.412124 20.2216672,619.417149 C20.2630506,619.4763 20.308941,619.531198 20.3593386,619.582616 C20.3630262,619.586482 20.3663041,619.590735 20.3704014,619.594601 C20.4806205,619.704396 20.6100971,619.794088 20.753095,619.861357 C20.7547339,619.862517 20.7563729,619.86329 20.7584215,619.864064 C21.1382469,620.042288 21.6053461,620.058139 22.0269645,619.834295 L40.3073411,610.120098 C41.2308863,609.629498 41.2308863,608.374968 40.3073411,607.883981 L22.1228428,598.22043 C22.1248915,598.220816 22.1273499,598.220816 22.1298083,598.220816 L22.0265548,598.166692 C21.1202185,597.685757 20,598.302776 20,599.28475 L20,599.287843 L20,618.711984 L20,618.716236 C20,618.79549 20.0094239,618.870878 20.0237647,618.945106 C20.0262231,618.96057 20.0299107,618.975261 20.0335984,618.990339" id="Play"></path>
        </g>
    </g>
</svg>