<?xml version="1.0" encoding="UTF-8"?>
<svg width="64px" height="64px" viewBox="0 0 64 64" version="1.1" xmlns="http://www.w3.org/2000/svg" xmlns:xlink="http://www.w3.org/1999/xlink">
    <title>Shape Copy 3</title>
    <g id="Android" stroke="none" stroke-width="1" fill="none" fill-rule="evenodd" opacity="0.785519622">
        <g id="1.2.-Home---Favorites" transform="translate(-148.000000, -448.000000)" fill="#FFFFFF" fill-rule="nonzero">
            <path d="M180,448 C162.326895,448 148,462.326895 148,480 C148,497.673105 162.326895,512 180,512 C197.673105,512 212,497.673105 212,480 C211.98125,462.334797 197.665337,448.018884 180,448 Z M193.476447,481.0196 C193.254929,481.463975 192.894795,481.824244 192.450285,482.045762 L192.450285,482.057146 L174.16459,491.20006 C173.035303,491.764302 171.662533,491.3064 171.098157,490.177112 C170.937711,489.856085 170.855077,489.50171 170.85705,489.142915 L170.85705,470.857219 C170.85655,469.594807 171.879364,468.571055 173.141776,468.570386 C173.496821,468.570386 173.847045,468.652752 174.16459,468.811458 L192.450285,477.954372 C193.580108,478.517409 194.039618,479.889777 193.476447,481.0196 Z" id="Shape-Copy-3"></path>
        </g>
    </g>
</svg>