<?xml version="1.0" encoding="UTF-8"?>
<svg width="18px" height="18px" viewBox="0 0 18 18" version="1.1" xmlns="http://www.w3.org/2000/svg" xmlns:xlink="http://www.w3.org/1999/xlink">
    <title>Shape</title>
    <g id="Android" stroke="none" stroke-width="1" fill="none" fill-rule="evenodd">
        <g id="1.2.-Home---Favorites" transform="translate(-34.000000, -245.000000)" fill="#000000" fill-rule="nonzero" stroke="#000000" stroke-width="0.5">
            <g id="suggestions" transform="translate(20.000000, 121.000000)">
                <g id="Group-2" transform="translate(0.000000, 109.000000)">
                    <path d="M21.444118,16 C17.893048,16 15,18.8930245 15,22.4441202 C15,25.9952026 17.8930435,28.8882471 21.444118,28.8882471 C22.9799264,28.8882471 24.3906326,28.345336 25.4994678,27.4438693 L29.8603598,31.8047583 C30.1206731,32.0650694 30.5444263,32.0650917 30.8047551,31.8047583 C31.0650816,31.544425 31.0650816,31.127625 30.8047551,30.8673138 L26.4438653,26.5064248 C27.3471517,25.3970248 27.888236,23.9816469 27.888236,22.4441202 C27.888236,18.8930245 24.9951902,16 21.444118,16 Z M21.444118,17.3332667 C24.2746349,17.3332667 26.5549697,19.6135823 26.5549697,22.4441202 C26.5549697,25.2746248 24.2746304,27.5549804 21.444118,27.5549804 C18.6136055,27.5549804 16.3332663,25.2746248 16.3332663,22.4441202 C16.3332663,19.6135823 18.6136011,17.3332667 21.444118,17.3332667 Z" id="Shape"></path>
                </g>
            </g>
        </g>
    </g>
</svg>